<?xml version="1.0" encoding="UTF-8" standalone="no"?>
<!DOCTYPE svg PUBLIC "-//W3C//DTD SVG 1.1//EN"
 "http://www.w3.org/Graphics/SVG/1.1/DTD/svg11.dtd">
<!-- Generated by graphviz version 2.38.0 (20140413.2041)
 -->
<!-- Title: %3 Pages: 1 -->
<svg width="476pt" height="507pt"
 viewBox="0.00 0.00 475.50 507.00" xmlns="http://www.w3.org/2000/svg" xmlns:xlink="http://www.w3.org/1999/xlink">
<g id="graph0" class="graph" transform="scale(1 1) rotate(0) translate(4 503)">
<title>%3</title>
<polygon fill="white" stroke="none" points="-4,4 -4,-503 471.5,-503 471.5,4 -4,4"/>
<!-- apt_signer -->
<g id="node1" class="node"><title>apt_signer</title>
<path fill="red" stroke="black" d="M267,-325C267,-325 111,-325 111,-325 105,-325 99,-319 99,-313 99,-313 99,-287 99,-287 99,-281 105,-275 111,-275 111,-275 267,-275 267,-275 273,-275 279,-281 279,-287 279,-287 279,-313 279,-313 279,-319 273,-325 267,-325"/>
<text text-anchor="start" x="156.5" y="-305.3" font-family="Helvetica,sans-Serif" font-weight="bold" font-size="9.00">prod</text>
<text text-anchor="start" x="156.5" y="-292.3" font-family="Helvetica,sans-Serif" font-size="14.00">apt_signer</text>
</g>
<!-- lxd_container -->
<g id="node5" class="node"><title>lxd_container</title>
<path fill="none" stroke="black" d="M267,-238C267,-238 111,-238 111,-238 105,-238 99,-232 99,-226 99,-226 99,-200 99,-200 99,-194 105,-188 111,-188 111,-188 267,-188 267,-188 273,-188 279,-194 279,-200 279,-200 279,-226 279,-226 279,-232 273,-238 267,-238"/>
<text text-anchor="middle" x="189" y="-209.3" font-family="Helvetica,sans-Serif" font-size="14.00">lxd_container</text>
</g>
<!-- apt_signer&#45;&gt;lxd_container -->
<g id="edge4" class="edge"><title>apt_signer&#45;&gt;lxd_container</title>
<path fill="none" stroke="black" d="M189,-274.87C189,-266.615 189,-257.215 189,-248.313"/>
<polygon fill="black" stroke="black" points="192.5,-248.191 189,-238.191 185.5,-248.191 192.5,-248.191"/>
</g>
<!-- gerrit -->
<g id="node2" class="node"><title>gerrit</title>
<text text-anchor="start" x="322.5" y="-216.8" font-family="Helvetica,sans-Serif" font-size="14.00">Gerrit presubmit result</text>
<text text-anchor="start" x="345.5" y="-201.8" font-family="Helvetica,sans-Serif" font-size="14.00">(Verfied +1/&#45;1)</text>
</g>
<!-- publish_apt_staging -->
<g id="node3" class="node"><title>publish_apt_staging</title>
<path fill="none" stroke="black" d="M168,-50C168,-50 12,-50 12,-50 6,-50 0,-44 0,-38 0,-38 0,-12 0,-12 0,-6 6,-0 12,-0 12,-0 168,-0 168,-0 174,-0 180,-6 180,-12 180,-12 180,-38 180,-38 180,-44 174,-50 168,-50"/>
<text text-anchor="start" x="28" y="-26.3" font-family="Helvetica,sans-Serif" font-size="14.00">publish_apt_staging</text>
<text text-anchor="start" x="29.5" y="-16.3" font-family="Helvetica,sans-Serif" font-weight="bold" font-size="9.00">gs://cros&#45;packages&#45;staging</text>
</g>
<!-- publish_lxd_staging -->
<g id="node4" class="node"><title>publish_lxd_staging</title>
<path fill="none" stroke="black" d="M366,-50C366,-50 210,-50 210,-50 204,-50 198,-44 198,-38 198,-38 198,-12 198,-12 198,-6 204,-0 210,-0 210,-0 366,-0 366,-0 372,-0 378,-6 378,-12 378,-12 378,-38 378,-38 378,-44 372,-50 366,-50"/>
<text text-anchor="start" x="226" y="-26.3" font-family="Helvetica,sans-Serif" font-size="14.00">publish_lxd_staging</text>
<text text-anchor="start" x="225" y="-16.3" font-family="Helvetica,sans-Serif" font-weight="bold" font-size="9.00">gs://cros&#45;containers&#45;staging</text>
</g>
<!-- lxd_container&#45;&gt;gerrit -->
<g id="edge6" class="edge"><title>lxd_container&#45;&gt;gerrit</title>
<path fill="none" stroke="black" d="M279.348,-213C287.616,-213 295.885,-213 304.153,-213"/>
<polygon fill="black" stroke="black" points="304.239,-216.5 314.239,-213 304.239,-209.5 304.239,-216.5"/>
</g>
<!-- publish_artifacts -->
<g id="node8" class="node"><title>publish_artifacts</title>
<path fill="none" stroke="black" d="M267,-137C267,-137 111,-137 111,-137 105,-137 99,-131 99,-125 99,-125 99,-99 99,-99 99,-93 105,-87 111,-87 111,-87 267,-87 267,-87 273,-87 279,-93 279,-99 279,-99 279,-125 279,-125 279,-131 273,-137 267,-137"/>
<text text-anchor="middle" x="189" y="-108.3" font-family="Helvetica,sans-Serif" font-size="14.00">publish_artifacts</text>
</g>
<!-- lxd_container&#45;&gt;publish_artifacts -->
<g id="edge5" class="edge"><title>lxd_container&#45;&gt;publish_artifacts</title>
<path fill="none" stroke="black" d="M189,-187.782C189,-175.677 189,-160.814 189,-147.537"/>
<polygon fill="black" stroke="black" points="192.5,-147.311 189,-137.311 185.5,-147.311 192.5,-147.311"/>
<text text-anchor="middle" x="223.5" y="-158.8" font-family="Helvetica,sans-Serif" font-size="14.00">continuous</text>
</g>
<!-- guest_tools_mesa -->
<g id="node6" class="node"><title>guest_tools_mesa</title>
<path fill="none" stroke="black" d="M267,-499C267,-499 111,-499 111,-499 105,-499 99,-493 99,-487 99,-487 99,-461 99,-461 99,-455 105,-449 111,-449 111,-449 267,-449 267,-449 273,-449 279,-455 279,-461 279,-461 279,-487 279,-487 279,-493 273,-499 267,-499"/>
<text text-anchor="middle" x="189" y="-470.3" font-family="Helvetica,sans-Serif" font-size="14.00">guest_tools_mesa</text>
</g>
<!-- apt_repo -->
<g id="node7" class="node"><title>apt_repo</title>
<path fill="none" stroke="black" d="M267,-412C267,-412 111,-412 111,-412 105,-412 99,-406 99,-400 99,-400 99,-374 99,-374 99,-368 105,-362 111,-362 111,-362 267,-362 267,-362 273,-362 279,-368 279,-374 279,-374 279,-400 279,-400 279,-406 273,-412 267,-412"/>
<text text-anchor="middle" x="189" y="-383.3" font-family="Helvetica,sans-Serif" font-size="14.00">apt_repo</text>
</g>
<!-- guest_tools_mesa&#45;&gt;apt_repo -->
<g id="edge1" class="edge"><title>guest_tools_mesa&#45;&gt;apt_repo</title>
<path fill="none" stroke="black" d="M189,-448.87C189,-440.615 189,-431.215 189,-422.313"/>
<polygon fill="black" stroke="black" points="192.5,-422.191 189,-412.191 185.5,-422.191 192.5,-422.191"/>
</g>
<!-- apt_repo&#45;&gt;apt_signer -->
<g id="edge2" class="edge"><title>apt_repo&#45;&gt;apt_signer</title>
<path fill="none" stroke="black" d="M189,-361.87C189,-353.615 189,-344.215 189,-335.313"/>
<polygon fill="black" stroke="black" points="192.5,-335.191 189,-325.191 185.5,-335.191 192.5,-335.191"/>
</g>
<!-- apt_repo&#45;&gt;lxd_container -->
<g id="edge3" class="edge"><title>apt_repo&#45;&gt;lxd_container</title>
<path fill="none" stroke="black" d="M249.498,-361.864C264.769,-352.703 279.289,-340.599 288,-325 298.835,-305.598 298.835,-294.402 288,-275 280.922,-262.326 270.01,-251.959 257.976,-243.603"/>
<polygon fill="black" stroke="black" points="259.799,-240.614 249.498,-238.136 256.005,-246.497 259.799,-240.614"/>
<text text-anchor="middle" x="326.5" y="-296.3" font-family="Helvetica,sans-Serif" font-size="14.00">presubmit</text>
</g>
<!-- publish_artifacts&#45;&gt;publish_apt_staging -->
<g id="edge7" class="edge"><title>publish_artifacts&#45;&gt;publish_apt_staging</title>
<path fill="none" stroke="black" d="M160.895,-86.8698C150.027,-77.5382 137.454,-66.7435 125.942,-56.859"/>
<polygon fill="black" stroke="black" points="128.042,-54.0493 118.175,-50.1906 123.482,-59.3603 128.042,-54.0493"/>
</g>
<!-- publish_artifacts&#45;&gt;publish_lxd_staging -->
<g id="edge8" class="edge"><title>publish_artifacts&#45;&gt;publish_lxd_staging</title>
<path fill="none" stroke="black" d="M217.105,-86.8698C227.973,-77.5382 240.546,-66.7435 252.058,-56.859"/>
<polygon fill="black" stroke="black" points="254.518,-59.3603 259.825,-50.1906 249.958,-54.0493 254.518,-59.3603"/>
</g>
</g>
</svg>
